<svg width="44" height="44" viewBox="0 0 44 44" fill="none" xmlns="http://www.w3.org/2000/svg">
<path d="M21.875 0C9.8125 0 0 9.8125 0 21.875C0 33.9375 9.8125 43.75 21.875 43.75C33.9375 43.75 43.75 33.9375 43.75 21.875C43.75 9.8125 33.9375 0 21.875 0ZM21.875 37.5C13.2656 37.5 6.25 30.4844 6.25 21.875C6.25 13.2656 13.2656 6.25 21.875 6.25C30.4844 6.25 37.5 13.2656 37.5 21.875C37.5 30.4844 30.4844 37.5 21.875 37.5Z" fill="url(#paint0_linear_5_3)"/>
<path d="M21.875 9.375C14.9844 9.375 9.375 14.9844 9.375 21.875C9.375 28.7656 14.9844 34.375 21.875 34.375C28.7656 34.375 34.375 28.7656 34.375 21.875C34.375 14.9844 28.7656 9.375 21.875 9.375ZM28.5 23.8594L26.7031 24.8437C25.9219 25.2656 25.2812 25.9063 24.8437 26.7031L23.8594 28.5C23.4531 29.2187 22.7031 29.6719 21.875 29.6719C21.0469 29.6719 20.2969 29.2187 19.8906 28.5L18.9063 26.7031C18.4688 25.9063 17.8281 25.2656 17.0469 24.8437L15.25 23.8594C14.5156 23.4688 14.0625 22.7031 14.0625 21.875C14.0625 21.0469 14.5156 20.2812 15.25 19.8906L17.0469 18.9063C17.8281 18.4844 18.4688 17.8437 18.9063 17.0469L19.8906 15.25C20.2969 14.5313 21.0469 14.0781 21.875 14.0781C22.7031 14.0781 23.4531 14.5313 23.8594 15.25L24.8437 17.0469C25.2812 17.8281 25.9219 18.4844 26.7031 18.9063L28.5 19.8906C29.2344 20.2812 29.6875 21.0469 29.6875 21.875C29.6875 22.7031 29.2344 23.4688 28.5 23.8594Z" fill="url(#paint1_linear_5_3)"/>
<defs>
<linearGradient id="paint0_linear_5_3" x1="6.375" y1="6.875" x2="36.875" y2="37.375" gradientUnits="userSpaceOnUse">
<stop stop-color="#7C3AED"/>
<stop offset="1" stop-color="#DC2626"/>
</linearGradient>
<linearGradient id="paint1_linear_5_3" x1="13.0179" y1="13.3036" x2="30.4464" y2="30.7321" gradientUnits="userSpaceOnUse">
<stop stop-color="#7C3AED"/>
<stop offset="1" stop-color="#DC2626"/>
</linearGradient>
</defs>
</svg>
