<svg xmlns="http://www.w3.org/2000/svg" version="1.1" xmlns:xlink="http://www.w3.org/1999/xlink" xmlns:svgjs="http://svgjs.com/svgjs" width="512" height="512" x="0" y="0" viewBox="0 0 452.512 452.512" style="enable-background:new 0 0 512 512" xml:space="preserve" class=""><g><path d="m344.236 302.272-111.61 147.08c-3.196 4.215-9.546 4.211-12.74 0l-111.61-147.08c-2.6-3.42 1.28-7.97 5.06-5.95l109.16 58.16c2.32 1.24 5.11 1.25 7.44.04l109.24-58.2c3.78-2.02 7.66 2.53 5.06 5.95z" fill="#ffffff" data-original="#6e6f80" class=""></path><path d="m344.236 302.272s-111.642 147.122-111.658 147.143c-2.045 2.643-6.322 1.044-6.322-2.298v-88.488c0-1.321.729-2.535 1.895-3.157l111.025-59.15c3.78-2.02 7.66 2.53 5.06 5.95z" fill="#ffffff" data-original="#585966" class=""></path><path d="m350.336 192.542-120.36 63.25c-2.294 1.226-5.141 1.228-7.44 0l-120.36-63.25c-4.22-2.22-5.57-7.62-2.9-11.57l120.36-177.46c3.155-4.672 10.061-4.684 13.23-.01l120.37 177.47c2.67 3.95 1.32 9.35-2.9 11.57z" fill="#ffffff" data-original="#6e6f80" class=""></path><path d="m350.336 192.542s-120.383 63.262-120.395 63.268c-1.675.884-3.685-.425-3.685-2.318v-250.282c0-1.868 1.965-3.19 3.63-2.346 1.151.584 2.183 1.463 2.979 2.638l120.37 177.47c2.671 3.95 1.321 9.35-2.899 11.57z" fill="#ffffff" data-original="#585966" class=""></path><path d="m222.534 314.834-132-69.37c-3.911-2.055-5.415-6.892-3.36-10.803 2.057-3.911 6.894-5.414 10.804-3.36l128.278 67.414 128.278-67.415c3.91-2.057 8.748-.551 10.804 3.36 2.055 3.911.551 8.748-3.36 10.803l-132 69.37c-2.33 1.225-5.114 1.225-7.444.001z" fill="#ffffff" data-original="#6e6f80" class=""></path><g fill="#828396"><path d="m229.616.742c-1.6-.58-3.36.698-3.36 2.468v133.248c0 4.846-2.212 9.41-5.969 12.471-24.774 20.189-55.248 26.504-86.611 22.772-11.865-1.412-17.958-14.97-11.252-24.859l97.211-143.33c2.304-3.412 6.645-4.344 9.981-2.77z" fill="#ffffff" data-original="#828396" class=""></path><path d="m211.29 356.178c-5.304 14.906-17.427 26.487-33.444 30.177-3.019.695-6.16-.523-8.033-2.99l-61.538-81.093c-2.6-3.42 1.28-7.97 5.06-5.95l94.152 50.17c3.478 1.853 5.124 5.974 3.803 9.686z" fill="#ffffff" data-original="#828396" class=""></path></g></g></svg>