<svg width="126" height="28" viewBox="0 0 126 28" fill="none" xmlns="http://www.w3.org/2000/svg">
<g clip-path="url(#clip0_5_19)">
<path d="M14 1.75C7.245 1.75 1.75 7.245 1.75 14C1.75 20.755 7.245 26.25 14 26.25C20.755 26.25 26.25 20.755 26.25 14C26.25 7.245 20.755 1.75 14 1.75ZM14 22.75C9.17875 22.75 5.25 18.8213 5.25 14C5.25 9.17875 9.17875 5.25 14 5.25C18.8213 5.25 22.75 9.17875 22.75 14C22.75 18.8213 18.8213 22.75 14 22.75Z" fill="white"/>
<path d="M14 7C10.1413 7 7 10.1413 7 14C7 17.8587 10.1413 21 14 21C17.8587 21 21 17.8587 21 14C21 10.1413 17.8587 7 14 7ZM17.71 15.1113L16.7038 15.6625C16.2663 15.8987 15.9075 16.2575 15.6625 16.7038L15.1113 17.71C14.8838 18.1125 14.4637 18.3662 14 18.3662C13.5363 18.3662 13.1162 18.1125 12.8887 17.71L12.3375 16.7038C12.0925 16.2575 11.7337 15.8987 11.2962 15.6625L10.29 15.1113C9.87875 14.8925 9.625 14.4637 9.625 14C9.625 13.5363 9.87875 13.1075 10.29 12.8887L11.2962 12.3375C11.7337 12.1013 12.0925 11.7425 12.3375 11.2962L12.8887 10.29C13.1162 9.8875 13.5363 9.63375 14 9.63375C14.4637 9.63375 14.8838 9.8875 15.1113 10.29L15.6625 11.2962C15.9075 11.7337 16.2663 12.1013 16.7038 12.3375L17.71 12.8887C18.1212 13.1075 18.375 13.5363 18.375 14C18.375 14.4637 18.1212 14.8925 17.71 15.1113Z" fill="white"/>
<path d="M32.4399 23L35.7039 6.2H38.1279L42.2199 16.964L46.3119 6.2H48.7359L51.9999 23H49.0119L46.9959 12.608L43.2159 22.616H41.2119L37.4319 12.608L35.4279 23H32.4399Z" fill="white"/>
<path d="M58.884 23.312C57.78 23.312 56.772 23.028 55.86 22.46C54.956 21.892 54.232 21.128 53.688 20.168C53.152 19.208 52.884 18.148 52.884 16.988C52.884 16.116 53.04 15.3 53.352 14.54C53.664 13.772 54.092 13.1 54.636 12.524C55.188 11.94 55.828 11.484 56.556 11.156C57.284 10.828 58.06 10.664 58.884 10.664C59.82 10.664 60.676 10.864 61.452 11.264C62.236 11.656 62.9 12.196 63.444 12.884C63.988 13.572 64.384 14.356 64.632 15.236C64.88 16.116 64.936 17.036 64.8 17.996H56.028C56.14 18.444 56.324 18.848 56.58 19.208C56.836 19.56 57.16 19.844 57.552 20.06C57.944 20.268 58.388 20.376 58.884 20.384C59.396 20.392 59.86 20.272 60.276 20.024C60.7 19.768 61.052 19.424 61.332 18.992L64.32 19.688C63.832 20.752 63.104 21.624 62.136 22.304C61.168 22.976 60.084 23.312 58.884 23.312ZM55.932 15.8H61.836C61.748 15.32 61.56 14.888 61.272 14.504C60.992 14.112 60.644 13.8 60.228 13.568C59.812 13.336 59.364 13.22 58.884 13.22C58.404 13.22 57.96 13.336 57.552 13.568C57.144 13.792 56.796 14.1 56.508 14.492C56.228 14.876 56.036 15.312 55.932 15.8Z" fill="white"/>
<path d="M73.1844 13.928H70.8564V23H67.9284V13.928H66.1524V11H67.9284V7.232H70.8564V11H73.1844V13.928Z" fill="white"/>
<path d="M84.1208 11H87.0488V23H84.1208L83.9888 21.512C83.6608 22.048 83.2248 22.484 82.6808 22.82C82.1448 23.148 81.5088 23.312 80.7728 23.312C79.8848 23.312 79.0528 23.144 78.2768 22.808C77.5008 22.472 76.8168 22.008 76.2248 21.416C75.6408 20.824 75.1808 20.14 74.8448 19.364C74.5168 18.588 74.3528 17.756 74.3528 16.868C74.3528 16.012 74.5088 15.208 74.8208 14.456C75.1408 13.704 75.5848 13.044 76.1528 12.476C76.7208 11.908 77.3768 11.464 78.1208 11.144C78.8648 10.824 79.6648 10.664 80.5208 10.664C81.3128 10.664 82.0208 10.84 82.6448 11.192C83.2768 11.544 83.8128 11.992 84.2528 12.536L84.1208 11ZM80.7008 20.492C81.3248 20.492 81.8768 20.336 82.3568 20.024C82.8368 19.712 83.2128 19.292 83.4848 18.764C83.7568 18.228 83.8928 17.64 83.8928 17C83.8928 16.352 83.7568 15.764 83.4848 15.236C83.2128 14.7 82.8328 14.276 82.3448 13.964C81.8648 13.652 81.3168 13.496 80.7008 13.496C80.0848 13.496 79.5208 13.656 79.0088 13.976C78.5048 14.288 78.1008 14.708 77.7968 15.236C77.5008 15.764 77.3528 16.352 77.3528 17C77.3528 17.648 77.5048 18.236 77.8088 18.764C78.1128 19.292 78.5168 19.712 79.0208 20.024C79.5328 20.336 80.0928 20.492 80.7008 20.492Z" fill="white"/>
<path d="M89.5103 23V5H92.4383V23H89.5103Z" fill="white"/>
<path d="M95.3228 11H98.2508V23H95.3228V11ZM96.8108 9.452C96.3788 9.452 96.0148 9.312 95.7188 9.032C95.4228 8.744 95.2748 8.384 95.2748 7.952C95.2748 7.528 95.4228 7.172 95.7188 6.884C96.0148 6.596 96.3748 6.452 96.7988 6.452C97.2228 6.452 97.5788 6.596 97.8668 6.884C98.1628 7.172 98.3108 7.528 98.3108 7.952C98.3108 8.384 98.1668 8.744 97.8788 9.032C97.5908 9.312 97.2348 9.452 96.8108 9.452Z" fill="white"/>
<path d="M112.034 15.416V23H109.105V16.184C109.105 15.712 108.99 15.284 108.757 14.9C108.525 14.508 108.214 14.2 107.822 13.976C107.438 13.744 107.009 13.628 106.537 13.628C106.065 13.628 105.634 13.744 105.242 13.976C104.858 14.2 104.55 14.508 104.318 14.9C104.094 15.284 103.981 15.712 103.981 16.184V23H101.054L101.042 11H103.97L103.981 12.068C104.389 11.636 104.878 11.296 105.446 11.048C106.014 10.792 106.626 10.664 107.282 10.664C108.154 10.664 108.95 10.88 109.67 11.312C110.39 11.736 110.962 12.308 111.386 13.028C111.818 13.74 112.034 14.536 112.034 15.416Z" fill="white"/>
<path d="M125.211 23H121.839L119.103 18.284L117.423 20.288V23H114.495V5H117.423V15.74L121.395 11H125.223L121.107 15.908L125.211 23Z" fill="white"/>
</g>
<defs>
<clipPath id="clip0_5_19">
<rect width="126" height="28" fill="white"/>
</clipPath>
</defs>
</svg>
