<svg width="25" height="25" viewBox="0 0 25 25" fill="none" xmlns="http://www.w3.org/2000/svg">
<path d="M12.5 0C5.60714 0 0 5.60714 0 12.5C0 19.3929 5.60714 25 12.5 25C19.3929 25 25 19.3929 25 12.5C25 5.60714 19.3929 0 12.5 0ZM12.5 21.4286C7.58036 21.4286 3.57143 17.4196 3.57143 12.5C3.57143 7.58036 7.58036 3.57143 12.5 3.57143C17.4196 3.57143 21.4286 7.58036 21.4286 12.5C21.4286 17.4196 17.4196 21.4286 12.5 21.4286Z" fill="url(#paint0_linear_6_20)"/>
<path d="M12.5 5.35742C8.56253 5.35742 5.35718 8.56278 5.35718 12.5003C5.35718 16.4378 8.56253 19.6431 12.5 19.6431C16.4375 19.6431 19.6429 16.4378 19.6429 12.5003C19.6429 8.56278 16.4375 5.35742 12.5 5.35742ZM16.2857 13.6342L15.259 14.1967C14.8125 14.4378 14.4465 14.8039 14.1965 15.2592L13.634 16.286C13.4018 16.6967 12.9732 16.9556 12.5 16.9556C12.0268 16.9556 11.5982 16.6967 11.3661 16.286L10.8036 15.2592C10.5536 14.8039 10.1875 14.4378 9.74111 14.1967L8.71432 13.6342C8.29468 13.411 8.03575 12.9735 8.03575 12.5003C8.03575 12.0271 8.29468 11.5896 8.71432 11.3663L9.74111 10.8039C10.1875 10.5628 10.5536 10.1967 10.8036 9.74135L11.3661 8.71456C11.5982 8.30385 12.0268 8.04492 12.5 8.04492C12.9732 8.04492 13.4018 8.30385 13.634 8.71456L14.1965 9.74135C14.4465 10.1878 14.8125 10.5628 15.259 10.8039L16.2857 11.3663C16.7054 11.5896 16.9643 12.0271 16.9643 12.5003C16.9643 12.9735 16.7054 13.411 16.2857 13.6342Z" fill="url(#paint1_linear_6_20)"/>
<defs>
<linearGradient id="paint0_linear_6_20" x1="3.64286" y1="3.92857" x2="21.0714" y2="21.3571" gradientUnits="userSpaceOnUse">
<stop stop-color="#7C3AED"/>
<stop offset="1" stop-color="#DC2626"/>
</linearGradient>
<linearGradient id="paint1_linear_6_20" x1="7.43881" y1="7.60232" x2="17.398" y2="17.5615" gradientUnits="userSpaceOnUse">
<stop stop-color="#7C3AED"/>
<stop offset="1" stop-color="#DC2626"/>
</linearGradient>
</defs>
</svg>
